<svg id="Capa_1" enable-background="new 0 0 512 512" height="512" viewBox="0 0 512 512" width="512" xmlns="http://www.w3.org/2000/svg"><g><g><circle cx="420.331" cy="79.645" fill="#ff8086" r="48.097"/><g fill="#ffe07d"><circle cx="376.242" cy="468.063" r="16.032"/><circle cx="223.935" cy="204.26" r="16.032"/><circle cx="168.187" cy="412.315" r="16.032"/><circle cx="431.99" cy="260.008" r="16.032"/><circle cx="223.935" cy="468.063" r="16.032"/><circle cx="376.242" cy="204.26" r="16.032"/><circle cx="431.99" cy="412.315" r="16.032"/><circle cx="168.187" cy="260.008" r="16.032"/><circle cx="147.782" cy="336.161" r="16.032"/><circle cx="452.395" cy="336.161" r="16.032"/></g><circle cx="300.089" cy="336.161" fill="#ff8086" r="104.21"/><path d="m316.121 424.339c-57.553 0-104.21-46.656-104.21-104.21 0-24.691 8.631-47.34 22.981-65.197-23.766 19.1-39.013 48.366-39.013 81.229 0 57.553 46.656 104.21 104.21 104.21 32.863 0 62.129-15.247 81.229-39.013-17.857 14.35-40.506 22.981-65.197 22.981z" fill="#e5646e"/><circle cx="300.089" cy="488.468" fill="#ffe07d" r="16.032"/><circle cx="300.089" cy="183.855" fill="#ffe07d" r="16.032"/><circle cx="340.169" cy="296.081" fill="#ffe07d" r="16.032"/><circle cx="300.089" cy="336.161" fill="#ffe07d" r="16.032"/><circle cx="260.008" cy="296.081" fill="#ffe07d" r="16.032"/><circle cx="340.169" cy="376.242" fill="#ffe07d" r="16.032"/><circle cx="260.008" cy="376.242" fill="#ffe07d" r="16.032"/><circle cx="115.718" cy="103.694" fill="#ff8086" r="64.129"/><path d="m129.746 153.794c-35.417 0-64.129-28.712-64.129-64.129 0-14.127 4.623-27.143 12.361-37.74-15.971 11.664-26.39 30.477-26.39 51.768 0 35.417 28.712 64.129 64.129 64.129 21.291 0 40.104-10.419 51.768-26.39-10.596 7.74-23.612 12.362-37.739 12.362z" fill="#e5646e"/><path d="m437.03 111.041c-26.562 0-48.097-21.534-48.097-48.097 0-8.995 2.515-17.383 6.813-24.584-14.063 8.394-23.512 23.716-23.512 41.284 0 26.563 21.534 48.097 48.097 48.097 17.569 0 32.891-9.45 41.284-23.514-7.2 4.299-15.588 6.814-24.585 6.814z" fill="#e5646e"/></g><g><path d="m356.809 279.441c-4.444-4.445-10.354-6.893-16.64-6.893s-12.195 2.448-16.64 6.892c-4.445 4.445-6.893 10.354-6.893 16.64s2.448 12.195 6.893 16.64c4.444 4.444 10.354 6.893 16.64 6.893s12.195-2.448 16.64-6.893 6.893-10.354 6.893-16.64-2.448-12.194-6.893-16.639zm-10.606 22.673c-1.612 1.611-3.754 2.499-6.033 2.499s-4.421-.888-6.033-2.5-2.499-3.754-2.499-6.033.887-4.421 2.499-6.033c1.612-1.612 3.754-2.499 6.033-2.499s4.421.887 6.033 2.5c1.612 1.611 2.499 3.754 2.499 6.033s-.888 4.421-2.499 6.033z"/><path d="m260.008 319.602c6.026 0 12.053-2.293 16.64-6.881 9.175-9.176 9.175-24.104 0-33.28-9.176-9.175-24.104-9.174-33.28 0-9.175 9.175-9.175 24.104 0 33.28 4.588 4.587 10.614 6.881 16.64 6.881zm-6.033-29.555c3.327-3.326 8.74-3.327 12.067 0s3.327 8.74 0 12.066c-3.326 3.327-8.739 3.328-12.067 0-3.327-3.326-3.327-8.739 0-12.066z"/><path d="m340.169 399.774c6.286 0 12.195-2.448 16.64-6.893s6.893-10.354 6.893-16.64-2.448-12.195-6.893-16.64c-4.444-4.445-10.354-6.893-16.64-6.893s-12.195 2.448-16.64 6.892c-4.445 4.445-6.893 10.354-6.893 16.64 0 6.285 2.448 12.195 6.893 16.64 4.445 4.446 10.355 6.894 16.64 6.894zm-6.033-29.565c1.612-1.612 3.754-2.499 6.033-2.499s4.421.887 6.033 2.499c1.612 1.611 2.499 3.754 2.499 6.033s-.887 4.421-2.499 6.033c-1.612 1.611-3.754 2.499-6.033 2.499s-4.421-.888-6.033-2.5-2.499-3.754-2.499-6.033c0-2.278.887-4.421 2.499-6.032z"/><path d="m243.368 392.882c4.588 4.587 10.614 6.881 16.64 6.881s12.052-2.293 16.64-6.881c2.929-2.929 2.929-7.678 0-10.606-2.928-2.929-7.677-2.929-10.606 0-3.326 3.327-8.739 3.328-12.067 0-3.327-3.327-3.327-8.74 0-12.066 2.929-2.929 2.929-7.678 0-10.607s-7.678-2.928-10.606 0c-9.176 9.174-9.176 24.104-.001 33.279z"/><path d="m323.621 336.161c0-12.976-10.557-23.532-23.532-23.532s-23.532 10.557-23.532 23.532 10.557 23.532 23.532 23.532 23.532-10.556 23.532-23.532zm-23.532 8.532c-4.705 0-8.532-3.827-8.532-8.532 0-4.704 3.828-8.532 8.532-8.532s8.532 3.828 8.532 8.532c0 4.705-3.828 8.532-8.532 8.532z"/><path d="m452.395 312.629c-10.354 0-19.16 6.724-22.3 16.032h-18.553c-.323-4.76-.956-9.467-1.875-14.097l8.507-2.28c4.001-1.072 6.375-5.185 5.303-9.186s-5.183-6.375-9.186-5.303l-8.523 2.284c-1.54-4.492-3.365-8.875-5.454-13.124l16.119-9.307c2.689 2.376 5.898 4.133 9.466 5.089 2.027.543 4.084.812 6.129.812 4.077 0 8.102-1.07 11.727-3.163 11.238-6.487 15.102-20.908 8.614-32.146-6.489-11.238-20.91-15.101-32.146-8.614-8.966 5.177-13.231 15.403-11.296 25.034l-16.114 9.304c-2.635-3.934-5.516-7.706-8.636-11.287l6.239-6.238c2.929-2.929 2.929-7.678 0-10.607-2.928-2.929-7.677-2.929-10.606 0l-6.225 6.225c-3.549-3.112-7.307-6.017-11.267-8.681l9.268-16.053c1.532.308 3.078.462 4.617.462 8.139 0 16.065-4.221 20.419-11.761 6.487-11.237 2.624-25.658-8.613-32.146s-25.658-2.624-32.146 8.614c-3.143 5.443-3.978 11.785-2.351 17.856.956 3.568 2.713 6.776 5.089 9.466l-12.902 22.347c-2.071 3.587-.842 8.174 2.745 10.245.062.036.128.06.191.094 29.712 17.282 48.164 49.319 48.164 83.659 0 53.326-43.384 96.71-96.709 96.71-53.326 0-96.71-43.384-96.71-96.71s43.384-96.709 96.71-96.709c8.495 0 16.921 1.101 25.044 3.272 4.006 1.069 8.113-1.307 9.183-5.309.005-.019 4.139-15.457 4.139-15.457 1.072-4.001-1.303-8.114-5.304-9.186-3.997-1.071-8.113 1.302-9.186 5.303l-2.27 8.47c-4.648-.91-9.36-1.526-14.106-1.842v-18.549c9.308-3.139 16.032-11.946 16.032-22.3 0-12.976-10.557-23.532-23.532-23.532s-23.532 10.557-23.532 23.532c0 10.354 6.724 19.161 16.032 22.3v18.555c-4.79.319-9.497.94-14.104 1.847l-2.272-8.481c-1.072-4.001-5.187-6.375-9.186-5.303-4.001 1.072-6.375 5.185-5.304 9.186l2.272 8.48c-4.514 1.545-8.897 3.375-13.132 5.463l-9.286-16.084c2.376-2.69 4.133-5.898 5.089-9.466 1.627-6.071.792-12.413-2.351-17.856-3.143-5.444-8.217-9.338-14.289-10.965s-12.414-.792-17.856 2.352c-11.237 6.488-15.101 20.908-8.613 32.146 3.143 5.443 8.217 9.337 14.289 10.964 2.027.543 4.084.812 6.128.812 1.556 0 3.103-.158 4.624-.467l9.285 16.083c-3.94 2.651-7.701 5.549-11.265 8.667l-6.25-6.25c-2.929-2.929-7.678-2.929-10.606 0-2.929 2.929-2.929 7.678 0 10.606l6.25 6.25c-3.118 3.564-6.015 7.325-8.667 11.265l-16.096-9.293c1.935-9.63-2.329-19.857-11.296-25.034-5.442-3.143-11.784-3.979-17.856-2.352s-11.146 5.521-14.289 10.965c-3.143 5.443-3.978 11.785-2.351 17.856s5.521 11.146 10.964 14.289c3.626 2.094 7.65 3.163 11.728 3.163 2.043 0 4.102-.269 6.128-.812 3.568-.956 6.776-2.713 9.466-5.089l16.085 9.287c-2.088 4.235-3.918 8.618-5.463 13.132l-8.48-2.272c-3.997-1.071-8.114 1.302-9.186 5.303s1.302 8.114 5.303 9.186l8.481 2.273c-.906 4.607-1.528 9.314-1.847 14.104h-18.555c-3.139-9.308-11.946-16.032-22.3-16.032-12.976 0-23.532 10.557-23.532 23.532s10.557 23.532 23.532 23.532c10.354 0 19.16-6.724 22.3-16.032h18.555c.319 4.79.94 9.498 1.847 14.104l-8.48 2.272c-4.001 1.072-6.375 5.185-5.304 9.186.898 3.351 3.928 5.561 7.24 5.561.643 0 1.296-.083 1.946-.258l8.48-2.272c1.546 4.515 3.376 8.898 5.463 13.132l-16.079 9.283c-7.373-6.492-18.362-7.912-27.328-2.734-11.237 6.488-15.101 20.909-8.613 32.146 4.354 7.541 12.28 11.762 20.419 11.762 3.99 0 8.03-1.014 11.727-3.148 8.966-5.177 13.231-15.404 11.296-25.035l16.096-9.293c2.651 3.94 5.549 7.701 8.667 11.265l-6.25 6.25c-2.929 2.929-2.929 7.678 0 10.606 1.464 1.465 3.384 2.197 5.303 2.197s3.839-.732 5.303-2.197l6.25-6.25c3.564 3.118 7.325 6.015 11.265 8.667l-9.295 16.094c-9.63-1.936-19.857 2.329-25.034 11.296-3.143 5.444-3.978 11.785-2.351 17.857 1.627 6.071 5.521 11.146 10.964 14.289 3.626 2.094 7.65 3.163 11.728 3.163 2.043 0 4.102-.269 6.128-.812 6.072-1.627 11.146-5.521 14.289-10.964 5.177-8.966 3.757-19.955-2.734-27.328l9.283-16.079c4.235 2.088 8.617 3.918 13.132 5.463l-2.272 8.48c-1.072 4.001 1.303 8.113 5.304 9.186.65.174 1.303.257 1.946.257 3.311 0 6.342-2.21 7.24-5.561l2.272-8.48c4.607.906 9.315 1.528 14.104 1.847v18.555c-9.308 3.14-16.032 11.946-16.032 22.3 0 12.976 10.557 23.532 23.532 23.532s23.532-10.557 23.532-23.532c0-10.354-6.724-19.16-16.032-22.3v-18.555c4.789-.319 9.497-.94 14.104-1.847l2.272 8.48c.898 3.351 3.928 5.561 7.24 5.561.643 0 1.296-.083 1.946-.257 4.001-1.072 6.375-5.185 5.304-9.186l-2.272-8.48c4.515-1.545 8.897-3.375 13.132-5.463l9.283 16.079c-6.492 7.373-7.911 18.362-2.734 27.328 4.354 7.541 12.28 11.761 20.419 11.761 3.99 0 8.031-1.014 11.727-3.148 11.237-6.487 15.101-20.908 8.614-32.145-5.177-8.966-15.403-13.231-25.034-11.296l-9.293-16.096c3.94-2.651 7.701-5.548 11.265-8.667l6.251 6.25c1.464 1.465 3.384 2.197 5.303 2.197s3.839-.732 5.303-2.197c2.929-2.929 2.929-7.678 0-10.606l-6.251-6.25c3.118-3.563 6.015-7.325 8.666-11.265l16.096 9.293c-1.935 9.631 2.329 19.857 11.296 25.035 3.697 2.134 7.736 3.147 11.726 3.147 8.139 0 16.066-4.221 20.419-11.762 6.488-11.237 2.624-25.657-8.614-32.145-8.967-5.177-19.955-3.757-27.328 2.734l-16.079-9.283c2.088-4.234 3.918-8.618 5.463-13.132l8.48 2.272c.65.175 1.303.258 1.946.258 3.311 0 6.342-2.21 7.24-5.561 1.072-4.001-1.303-8.114-5.304-9.186l-8.48-2.272c.906-4.607 1.528-9.314 1.847-14.104h18.555c3.139 9.309 11.946 16.032 22.3 16.032 12.976 0 23.532-10.557 23.532-23.532s-10.558-23.532-23.534-23.532zm-28.646-54.829c.59-2.201 2.001-4.041 3.975-5.181 4.075-2.352 9.304-.951 11.655 3.123 2.353 4.075.952 9.303-3.123 11.656-1.974 1.139-4.272 1.442-6.474.852s-4.042-2.001-5.181-3.975-1.443-4.274-.852-6.475zm-202.021-45.299c-2.202-.59-4.042-2.001-5.181-3.975s-1.442-4.273-.852-6.475c.59-2.201 2.001-4.041 3.975-5.181 1.315-.759 2.774-1.147 4.252-1.147.741 0 1.487.097 2.222.294 2.202.59 4.042 2.002 5.181 3.976s1.442 4.273.852 6.474c-.589 2.202-2.001 4.042-3.975 5.181-1.974 1.14-4.273 1.444-6.474.853zm-51.332 55.749c-2.2.59-4.5.288-6.474-.852s-3.386-2.979-3.975-5.181c-.59-2.201-.288-4.5.852-6.474s2.979-3.386 5.181-3.976c.735-.197 1.48-.294 2.222-.294 1.479 0 2.938.388 4.252 1.147 1.974 1.14 3.385 2.979 3.975 5.181.59 2.201.288 4.501-.852 6.475s-2.98 3.384-5.181 3.974zm2.058 151.454c-4.074 2.352-9.302.951-11.655-3.124-1.14-1.974-1.442-4.273-.852-6.474.59-2.202 2.001-4.042 3.975-5.181 1.315-.759 2.773-1.147 4.252-1.147.741 0 1.487.098 2.222.295 2.202.59 4.042 2.001 5.181 3.975 2.352 4.075.951 9.304-3.123 11.656zm58.871 52.625c-1.14 1.974-2.979 3.385-5.181 3.975-2.2.59-4.5.288-6.474-.852s-3.386-2.979-3.975-5.181c-.59-2.201-.288-4.5.852-6.474s2.979-3.385 5.181-3.975c2.2-.59 4.5-.288 6.474.852s3.385 2.979 3.975 5.181c.59 2.201.287 4.5-.852 6.474zm152.306-8.533c2.353 4.075.952 9.304-3.123 11.656-4.074 2.352-9.303.951-11.656-3.123-1.14-1.974-1.442-4.273-.852-6.474.59-2.202 2.001-4.042 3.975-5.181 1.34-.774 2.805-1.141 4.252-1.141 2.951-.001 5.825 1.529 7.404 4.263zm46.151-59.723c2.2-.59 4.5-.288 6.474.852 4.075 2.352 5.476 7.581 3.124 11.655-2.352 4.075-7.581 5.475-11.656 3.123-4.074-2.353-5.475-7.581-3.123-11.656 1.139-1.972 2.979-3.384 5.181-3.974zm-60.929-204.079c1.579-2.734 4.453-4.265 7.404-4.265 1.446 0 2.912.368 4.252 1.142 4.074 2.352 5.475 7.581 3.123 11.655s-7.58 5.476-11.656 3.123c-1.974-1.14-3.386-2.979-3.975-5.181-.591-2.201-.288-4.5.852-6.474zm-68.764-24.672c4.705 0 8.532 3.828 8.532 8.532 0 4.705-3.828 8.533-8.532 8.533s-8.532-3.828-8.532-8.533c0-4.704 3.827-8.532 8.532-8.532zm-152.307 169.371c-4.705 0-8.532-3.827-8.532-8.532 0-4.704 3.828-8.532 8.532-8.532s8.532 3.828 8.532 8.532c0 4.705-3.827 8.532-8.532 8.532zm152.307 152.307c-4.705 0-8.532-3.828-8.532-8.532s3.828-8.532 8.532-8.532 8.532 3.828 8.532 8.532-3.828 8.532-8.532 8.532zm152.306-152.307c-4.705 0-8.532-3.827-8.532-8.532 0-4.704 3.828-8.532 8.532-8.532s8.532 3.828 8.532 8.532c0 4.705-3.827 8.532-8.532 8.532z"/><path d="m307.589 264.016c0-4.142-3.358-7.5-7.5-7.5h-.08c-4.142 0-7.46 3.358-7.46 7.5s3.398 7.5 7.54 7.5 7.5-3.358 7.5-7.5z"/><path d="m227.943 328.661c-4.142 0-7.46 3.358-7.46 7.5 0 4.143 3.398 7.5 7.541 7.5s7.5-3.357 7.5-7.5c0-4.142-3.358-7.5-7.5-7.5z"/><path d="m379.734 336.161c0-4.142-3.358-7.5-7.5-7.5h-.08c-4.142 0-7.46 3.358-7.46 7.5 0 4.143 3.398 7.5 7.54 7.5s7.5-3.357 7.5-7.5z"/><path d="m300.089 400.807c-4.142 0-7.46 3.357-7.46 7.5 0 4.142 3.398 7.5 7.54 7.5s7.5-3.358 7.5-7.5c0-4.143-3.358-7.5-7.5-7.5z"/><path d="m144.829 169.116 12.49 21.634c1.389 2.406 3.91 3.751 6.502 3.751 1.272 0 2.562-.324 3.743-1.006 3.587-2.071 4.816-6.658 2.745-10.245l-12.5-21.651c6.058-4.416 11.397-9.755 15.813-15.813l21.651 12.5c1.181.683 2.471 1.006 3.743 1.006 2.592 0 5.113-1.345 6.502-3.751 2.071-3.587.842-8.174-2.745-10.245l-21.634-12.49c3.005-6.726 5.016-13.988 5.812-21.611h24.959c4.142 0 7.5-3.357 7.5-7.5 0-4.142-3.358-7.5-7.5-7.5h-24.959c-.797-7.623-2.808-14.885-5.813-21.611l21.634-12.49c3.587-2.071 4.816-6.658 2.745-10.245s-6.658-4.815-10.245-2.745l-21.651 12.5c-4.416-6.058-9.755-11.397-15.813-15.813l12.5-21.65c2.071-3.587.842-8.174-2.745-10.245-3.587-2.072-8.174-.843-10.245 2.745l-12.49 21.634c-6.726-3.005-13.989-5.016-21.611-5.812v-24.963c0-4.142-3.358-7.5-7.5-7.5s-7.5 3.358-7.5 7.5v24.959c-7.623.797-14.885 2.808-21.611 5.812l-12.49-21.634c-2.071-3.588-6.658-4.816-10.245-2.745s-4.816 6.658-2.745 10.245l12.5 21.65c-6.058 4.416-11.397 9.755-15.813 15.813l-21.651-12.5c-3.587-2.071-8.174-.842-10.245 2.745s-.842 8.174 2.745 10.245l21.634 12.491c-3.005 6.726-5.016 13.988-5.813 21.611h-24.959c-4.142 0-7.5 3.358-7.5 7.5 0 4.143 3.358 7.5 7.5 7.5h24.963c.785 7.476 2.739 14.78 5.783 21.625l-21.609 12.476c-3.587 2.071-4.816 6.658-2.745 10.245 1.389 2.406 3.91 3.751 6.502 3.751 1.272 0 2.562-.324 3.743-1.006l27.769-16.032-.001-.001c3.583-2.075 4.806-6.662 2.733-10.246-4.955-8.563-7.573-18.354-7.573-28.313 0-31.225 25.404-56.629 56.629-56.629s56.629 25.404 56.629 56.629c0 31.226-25.404 56.629-56.629 56.629-9.958 0-19.749-2.618-28.312-7.572-3.583-2.074-8.171-.851-10.245 2.732l-.003-.001-16.032 27.771c-2.071 3.587-.842 8.174 2.745 10.245 1.181.682 2.471 1.006 3.743 1.006 2.592 0 5.113-1.346 6.502-3.751l12.476-21.609c6.846 3.044 14.15 4.998 21.625 5.784v24.963c0 4.142 3.358 7.5 7.5 7.5s7.5-3.358 7.5-7.5v-24.959c7.623-.798 14.886-2.808 21.612-5.813z"/><path d="m115.718 87.146c4.142 0 7.5-3.358 7.5-7.5v-8.017c0-4.142-3.358-7.5-7.5-7.5s-7.5 3.358-7.5 7.5v8.017c0 4.141 3.358 7.5 7.5 7.5z"/><path d="m108.218 135.758c0 4.143 3.358 7.5 7.5 7.5s7.5-3.357 7.5-7.5v-8.016c0-4.143-3.358-7.5-7.5-7.5s-7.5 3.357-7.5 7.5z"/><path d="m147.782 111.193c4.142 0 7.5-3.357 7.5-7.5 0-4.142-3.358-7.5-7.5-7.5h-8.016c-4.142 0-7.5 3.358-7.5 7.5 0 4.143 3.358 7.5 7.5 7.5z"/><path d="m83.653 111.193h8.016c4.142 0 7.5-3.357 7.5-7.5 0-4.142-3.358-7.5-7.5-7.5h-8.016c-4.142 0-7.5 3.358-7.5 7.5 0 4.143 3.358 7.5 7.5 7.5z"/><path d="m492.476 72.146h-17.06c-1.279-9.539-4.99-18.498-10.831-26.147l12.064-12.064c2.929-2.929 2.929-7.677 0-10.606s-7.678-2.929-10.606 0l-17.005 17.004.017.042c-2.915 2.928-2.914 7.664.007 10.589 7.652 7.665 11.866 17.852 11.866 28.683 0 22.385-18.211 40.597-40.597 40.597s-40.597-18.212-40.597-40.597c0-22.386 18.211-40.597 40.597-40.597 2.468 0 4.938.222 7.343.661 4.077.743 7.981-1.957 8.725-6.032.743-4.075-1.958-7.981-6.032-8.724-.84-.153-1.686-.286-2.536-.4v-17.055c0-4.142-3.358-7.5-7.5-7.5s-7.5 3.358-7.5 7.5v17.068c-9.729 1.318-18.666 5.155-26.128 10.842l-12.083-12.082c-2.929-2.929-7.678-2.929-10.606 0-2.929 2.929-2.929 7.678 0 10.606l12.083 12.083c-5.687 7.462-9.524 16.399-10.842 26.129h-17.068c-4.142 0-7.5 3.357-7.5 7.5 0 4.142 3.358 7.5 7.5 7.5h17.068c1.318 9.729 5.155 18.666 10.842 26.128l-12.083 12.083c-2.929 2.929-2.929 7.677 0 10.606 1.464 1.464 3.384 2.196 5.303 2.196s3.839-.732 5.303-2.196l12.083-12.083c7.462 5.687 16.399 9.523 26.128 10.842v17.068c0 4.143 3.358 7.5 7.5 7.5s7.5-3.357 7.5-7.5v-17.068c9.729-1.318 18.666-5.155 26.128-10.842l12.083 12.083c1.464 1.464 3.384 2.196 5.303 2.196s3.839-.732 5.303-2.196c2.929-2.929 2.929-7.678 0-10.606l-12.083-12.083c5.687-7.462 9.524-16.399 10.842-26.128h17.068c4.142 0 7.5-3.358 7.5-7.5.001-4.143-3.357-7.5-7.499-7.5z"/><path d="m436.283 64.129c-4.142 0-7.46 3.358-7.46 7.5 0 4.143 3.398 7.5 7.54 7.5s7.5-3.357 7.5-7.5c0-4.142-3.358-7.5-7.5-7.5z"/><path d="m420.331 88.178h-.08c-4.142 0-7.46 3.357-7.46 7.5 0 4.142 3.398 7.5 7.54 7.5s7.5-3.358 7.5-7.5c0-4.143-3.358-7.5-7.5-7.5z"/><path d="m404.218 64.129c-4.142 0-7.46 3.358-7.46 7.5 0 4.143 3.398 7.5 7.54 7.5s7.5-3.357 7.5-7.5c0-4.142-3.358-7.5-7.5-7.5z"/></g></g></svg>